<?xml version="1.0" encoding="UTF-8"?>
<svg width="400" height="300" viewBox="0 0 400 300" xmlns="http://www.w3.org/2000/svg">
  <!-- Фон -->
  <rect width="400" height="300" fill="#f3f4f6"/>
  
  <!-- Сумка -->
  <path d="M100 50 L300 50 L350 150 L350 250 L50 250 L50 150 Z" fill="#4b5563"/>
  <path d="M100 50 L300 50 L350 150 L350 250 L50 250 L50 150 Z" fill="none" stroke="#1f2937" stroke-width="2"/>
  
  <!-- Ручка -->
  <path d="M150 50 Q200 0 250 50" fill="none" stroke="#1f2937" stroke-width="4"/>
  
  <!-- QR-код -->
  <rect x="150" y="100" width="100" height="100" fill="white"/>
  <rect x="150" y="100" width="100" height="100" fill="none" stroke="#1f2937" stroke-width="1"/>
  <!-- Паттерн QR-кода -->
  <rect x="160" y="110" width="20" height="20" fill="#1f2937"/>
  <rect x="190" y="110" width="20" height="20" fill="#1f2937"/>
  <rect x="220" y="110" width="20" height="20" fill="#1f2937"/>
  <rect x="160" y="140" width="20" height="20" fill="#1f2937"/>
  <rect x="220" y="140" width="20" height="20" fill="#1f2937"/>
  <rect x="160" y="170" width="20" height="20" fill="#1f2937"/>
  <rect x="190" y="170" width="20" height="20" fill="#1f2937"/>
  <rect x="220" y="170" width="20" height="20" fill="#1f2937"/>
</svg> 