<?xml version="1.0" encoding="UTF-8"?>
<svg width="400" height="600" viewBox="0 0 400 600" xmlns="http://www.w3.org/2000/svg">
  <!-- Фон -->
  <rect width="400" height="600" fill="#f3f4f6"/>
  
  <!-- Билет -->
  <rect x="50" y="50" width="300" height="500" rx="10" fill="white"/>
  <rect x="50" y="50" width="300" height="500" rx="10" fill="none" stroke="#1f2937" stroke-width="2"/>
  
  <!-- Заголовок -->
  <rect x="70" y="70" width="260" height="40" rx="5" fill="#1f2937"/>
  
  <!-- Информация о мероприятии -->
  <rect x="70" y="130" width="260" height="20" rx="10" fill="#e5e7eb"/>
  <rect x="70" y="160" width="260" height="20" rx="10" fill="#e5e7eb"/>
  <rect x="70" y="190" width="260" height="20" rx="10" fill="#e5e7eb"/>
  <rect x="70" y="220" width="260" height="20" rx="10" fill="#e5e7eb"/>
  
  <!-- Детали билета -->
  <rect x="70" y="260" width="120" height="20" rx="10" fill="#e5e7eb"/>
  <rect x="210" y="260" width="120" height="20" rx="10" fill="#e5e7eb"/>
  <rect x="70" y="290" width="120" height="20" rx="10" fill="#e5e7eb"/>
  <rect x="210" y="290" width="120" height="20" rx="10" fill="#e5e7eb"/>
  
  <!-- QR-код -->
  <rect x="120" y="330" width="160" height="160" fill="white"/>
  <rect x="120" y="330" width="160" height="160" fill="none" stroke="#1f2937" stroke-width="1"/>
  <!-- Паттерн QR-кода -->
  <rect x="125" y="335" width="15" height="15" fill="#1f2937"/>
  <rect x="145" y="335" width="15" height="15" fill="#1f2937"/>
  <rect x="165" y="335" width="15" height="15" fill="#1f2937"/>
  <rect x="185" y="335" width="15" height="15" fill="#1f2937"/>
  <rect x="205" y="335" width="15" height="15" fill="#1f2937"/>
  <rect x="225" y="335" width="15" height="15" fill="#1f2937"/>
  <rect x="245" y="335" width="15" height="15" fill="#1f2937"/>
  <rect x="265" y="335" width="15" height="15" fill="#1f2937"/>
  <rect x="125" y="355" width="15" height="15" fill="#1f2937"/>
  <rect x="265" y="355" width="15" height="15" fill="#1f2937"/>
  <rect x="125" y="375" width="15" height="15" fill="#1f2937"/>
  <rect x="145" y="375" width="15" height="15" fill="#1f2937"/>
  <rect x="165" y="375" width="15" height="15" fill="#1f2937"/>
  <rect x="185" y="375" width="15" height="15" fill="#1f2937"/>
  <rect x="205" y="375" width="15" height="15" fill="#1f2937"/>
  <rect x="225" y="375" width="15" height="15" fill="#1f2937"/>
  <rect x="245" y="375" width="15" height="15" fill="#1f2937"/>
  <rect x="265" y="375" width="15" height="15" fill="#1f2937"/>
  <rect x="125" y="395" width="15" height="15" fill="#1f2937"/>
  <rect x="265" y="395" width="15" height="15" fill="#1f2937"/>
  <rect x="125" y="415" width="15" height="15" fill="#1f2937"/>
  <rect x="145" y="415" width="15" height="15" fill="#1f2937"/>
  <rect x="165" y="415" width="15" height="15" fill="#1f2937"/>
  <rect x="185" y="415" width="15" height="15" fill="#1f2937"/>
  <rect x="205" y="415" width="15" height="15" fill="#1f2937"/>
  <rect x="225" y="415" width="15" height="15" fill="#1f2937"/>
  <rect x="245" y="415" width="15" height="15" fill="#1f2937"/>
  <rect x="265" y="415" width="15" height="15" fill="#1f2937"/>
  <rect x="125" y="435" width="15" height="15" fill="#1f2937"/>
  <rect x="265" y="435" width="15" height="15" fill="#1f2937"/>
  <rect x="125" y="455" width="15" height="15" fill="#1f2937"/>
  <rect x="145" y="455" width="15" height="15" fill="#1f2937"/>
  <rect x="165" y="455" width="15" height="15" fill="#1f2937"/>
  <rect x="185" y="455" width="15" height="15" fill="#1f2937"/>
  <rect x="205" y="455" width="15" height="15" fill="#1f2937"/>
  <rect x="225" y="455" width="15" height="15" fill="#1f2937"/>
  <rect x="245" y="455" width="15" height="15" fill="#1f2937"/>
  <rect x="265" y="455" width="15" height="15" fill="#1f2937"/>
  
  <!-- Дополнительная информация -->
  <rect x="70" y="480" width="260" height="20" rx="10" fill="#e5e7eb"/>
  <rect x="70" y="510" width="260" height="20" rx="10" fill="#e5e7eb"/>
</svg> 