<?xml version="1.0" encoding="UTF-8"?>
<svg width="400" height="300" viewBox="0 0 400 300" xmlns="http://www.w3.org/2000/svg">
  <!-- Фон -->
  <rect width="400" height="300" fill="#f3f4f6"/>
  
  <!-- Брелок -->
  <circle cx="200" cy="150" r="100" fill="#4b5563"/>
  <circle cx="200" cy="150" r="100" fill="none" stroke="#1f2937" stroke-width="2"/>
  
  <!-- Ключи -->
  <path d="M200 50 L200 100" stroke="#1f2937" stroke-width="4"/>
  <path d="M200 100 L250 100" stroke="#1f2937" stroke-width="4"/>
  <path d="M200 100 L150 100" stroke="#1f2937" stroke-width="4"/>
  
  <!-- QR-код -->
  <rect x="150" y="100" width="100" height="100" fill="white"/>
  <rect x="150" y="100" width="100" height="100" fill="none" stroke="#1f2937" stroke-width="1"/>
  <!-- Паттерн QR-кода -->
  <rect x="160" y="110" width="20" height="20" fill="#1f2937"/>
  <rect x="190" y="110" width="20" height="20" fill="#1f2937"/>
  <rect x="220" y="110" width="20" height="20" fill="#1f2937"/>
  <rect x="160" y="140" width="20" height="20" fill="#1f2937"/>
  <rect x="220" y="140" width="20" height="20" fill="#1f2937"/>
  <rect x="160" y="170" width="20" height="20" fill="#1f2937"/>
  <rect x="190" y="170" width="20" height="20" fill="#1f2937"/>
  <rect x="220" y="170" width="20" height="20" fill="#1f2937"/>
</svg> 