<?xml version="1.0" encoding="UTF-8"?>
<svg width="400" height="300" viewBox="0 0 400 300" xmlns="http://www.w3.org/2000/svg">
  <!-- Фон -->
  <rect width="400" height="300" fill="#f3f4f6"/>
  
  <!-- Ошейник -->
  <path d="M100 150 Q200 100 300 150" fill="none" stroke="#4b5563" stroke-width="20"/>
  <path d="M100 150 Q200 100 300 150" fill="none" stroke="#1f2937" stroke-width="2"/>
  
  <!-- Медальон -->
  <circle cx="200" cy="100" r="30" fill="#4b5563"/>
  <circle cx="200" cy="100" r="30" fill="none" stroke="#1f2937" stroke-width="2"/>
  
  <!-- QR-код -->
  <rect x="170" y="70" width="60" height="60" fill="white"/>
  <rect x="170" y="70" width="60" height="60" fill="none" stroke="#1f2937" stroke-width="1"/>
  <!-- Паттерн QR-кода -->
  <rect x="175" y="75" width="10" height="10" fill="#1f2937"/>
  <rect x="190" y="75" width="10" height="10" fill="#1f2937"/>
  <rect x="205" y="75" width="10" height="10" fill="#1f2937"/>
  <rect x="175" y="90" width="10" height="10" fill="#1f2937"/>
  <rect x="205" y="90" width="10" height="10" fill="#1f2937"/>
  <rect x="175" y="105" width="10" height="10" fill="#1f2937"/>
  <rect x="190" y="105" width="10" height="10" fill="#1f2937"/>
  <rect x="205" y="105" width="10" height="10" fill="#1f2937"/>
</svg> 