<?xml version="1.0" encoding="UTF-8"?>
<svg width="400" height="600" viewBox="0 0 400 600" xmlns="http://www.w3.org/2000/svg">
  <!-- Фон -->
  <rect width="400" height="600" fill="#f3f4f6"/>
  
  <!-- Визитная карточка -->
  <rect x="50" y="50" width="300" height="500" rx="10" fill="white"/>
  <rect x="50" y="50" width="300" height="500" rx="10" fill="none" stroke="#1f2937" stroke-width="2"/>
  
  <!-- Логотип компании -->
  <rect x="70" y="70" width="100" height="100" rx="5" fill="#e5e7eb"/>
  
  <!-- Информация о компании -->
  <rect x="190" y="70" width="140" height="20" rx="10" fill="#e5e7eb"/>
  <rect x="190" y="100" width="140" height="20" rx="10" fill="#e5e7eb"/>
  <rect x="190" y="130" width="140" height="20" rx="10" fill="#e5e7eb"/>
  
  <!-- Контактная информация -->
  <rect x="70" y="190" width="260" height="30" rx="5" fill="#1f2937"/>
  <rect x="70" y="230" width="260" height="20" rx="10" fill="#e5e7eb"/>
  <rect x="70" y="260" width="260" height="20" rx="10" fill="#e5e7eb"/>
  <rect x="70" y="290" width="260" height="20" rx="10" fill="#e5e7eb"/>
  
  <!-- QR-код -->
  <rect x="120" y="330" width="160" height="160" fill="white"/>
  <rect x="120" y="330" width="160" height="160" fill="none" stroke="#1f2937" stroke-width="1"/>
  <!-- Паттерн QR-кода -->
  <rect x="125" y="335" width="15" height="15" fill="#1f2937"/>
  <rect x="145" y="335" width="15" height="15" fill="#1f2937"/>
  <rect x="165" y="335" width="15" height="15" fill="#1f2937"/>
  <rect x="185" y="335" width="15" height="15" fill="#1f2937"/>
  <rect x="205" y="335" width="15" height="15" fill="#1f2937"/>
  <rect x="225" y="335" width="15" height="15" fill="#1f2937"/>
  <rect x="245" y="335" width="15" height="15" fill="#1f2937"/>
  <rect x="265" y="335" width="15" height="15" fill="#1f2937"/>
  <rect x="125" y="355" width="15" height="15" fill="#1f2937"/>
  <rect x="265" y="355" width="15" height="15" fill="#1f2937"/>
  <rect x="75" y="150" width="10" height="10" fill="#1f2937"/>
  <rect x="95" y="150" width="10" height="10" fill="#1f2937"/>
  <rect x="115" y="150" width="10" height="10" fill="#1f2937"/>
  <rect x="135" y="150" width="10" height="10" fill="#1f2937"/>
  <rect x="75" y="170" width="10" height="10" fill="#1f2937"/>
  <rect x="135" y="170" width="10" height="10" fill="#1f2937"/>
  <rect x="75" y="190" width="10" height="10" fill="#1f2937"/>
  <rect x="95" y="190" width="10" height="10" fill="#1f2937"/>
  <rect x="115" y="190" width="10" height="10" fill="#1f2937"/>
  <rect x="135" y="190" width="10" height="10" fill="#1f2937"/>
  <rect x="75" y="210" width="10" height="10" fill="#1f2937"/>
  <rect x="135" y="210" width="10" height="10" fill="#1f2937"/>
</svg> 