<?xml version="1.0" encoding="UTF-8"?>
<svg width="400" height="300" viewBox="0 0 400 300" xmlns="http://www.w3.org/2000/svg">
  <!-- Фон -->
  <rect width="400" height="300" fill="#f3f4f6"/>
  
  <!-- Телефон -->
  <rect x="150" y="50" width="100" height="180" rx="20" fill="#4b5563"/>
  <rect x="150" y="50" width="100" height="180" rx="20" fill="none" stroke="#1f2937" stroke-width="2"/>
  
  <!-- Экран -->
  <rect x="160" y="60" width="80" height="160" rx="10" fill="#1f2937"/>
  
  <!-- QR-код -->
  <rect x="170" y="100" width="60" height="60" fill="white"/>
  <rect x="170" y="100" width="60" height="60" fill="none" stroke="white" stroke-width="1"/>
  <!-- Паттерн QR-кода -->
  <rect x="175" y="105" width="10" height="10" fill="#1f2937"/>
  <rect x="190" y="105" width="10" height="10" fill="#1f2937"/>
  <rect x="205" y="105" width="10" height="10" fill="#1f2937"/>
  <rect x="175" y="120" width="10" height="10" fill="#1f2937"/>
  <rect x="205" y="120" width="10" height="10" fill="#1f2937"/>
  <rect x="175" y="135" width="10" height="10" fill="#1f2937"/>
  <rect x="190" y="135" width="10" height="10" fill="#1f2937"/>
  <rect x="205" y="135" width="10" height="10" fill="#1f2937"/>
  
  <!-- Кнопка -->
  <rect x="190" y="230" width="20" height="5" rx="2" fill="#6b7280"/>
</svg> 