<?xml version="1.0" encoding="UTF-8"?>
<svg width="400" height="600" viewBox="0 0 400 600" xmlns="http://www.w3.org/2000/svg">
  <!-- Фон -->
  <rect width="400" height="600" fill="#f3f4f6"/>
  
  <!-- Меню -->
  <rect x="50" y="50" width="300" height="500" rx="10" fill="white"/>
  <rect x="50" y="50" width="300" height="500" rx="10" fill="none" stroke="#1f2937" stroke-width="2"/>
  
  <!-- Заголовок -->
  <rect x="70" y="70" width="260" height="40" rx="5" fill="#1f2937"/>
  
  <!-- Категории блюд -->
  <rect x="70" y="130" width="260" height="30" rx="5" fill="#e5e7eb"/>
  <rect x="70" y="170" width="260" height="30" rx="5" fill="#e5e7eb"/>
  <rect x="70" y="210" width="260" height="30" rx="5" fill="#e5e7eb"/>
  
  <!-- Блюда -->
  <rect x="70" y="260" width="180" height="20" rx="10" fill="#e5e7eb"/>
  <rect x="260" y="260" width="70" height="20" rx="10" fill="#e5e7eb"/>
  <rect x="70" y="290" width="180" height="20" rx="10" fill="#e5e7eb"/>
  <rect x="260" y="290" width="70" height="20" rx="10" fill="#e5e7eb"/>
  <rect x="70" y="320" width="180" height="20" rx="10" fill="#e5e7eb"/>
  <rect x="260" y="320" width="70" height="20" rx="10" fill="#e5e7eb"/>
  
  <!-- QR-код -->
  <rect x="120" y="360" width="160" height="160" fill="white"/>
  <rect x="120" y="360" width="160" height="160" fill="none" stroke="#1f2937" stroke-width="1"/>
  <!-- Паттерн QR-кода -->
  <rect x="125" y="365" width="15" height="15" fill="#1f2937"/>
  <rect x="145" y="365" width="15" height="15" fill="#1f2937"/>
  <rect x="165" y="365" width="15" height="15" fill="#1f2937"/>
  <rect x="185" y="365" width="15" height="15" fill="#1f2937"/>
  <rect x="205" y="365" width="15" height="15" fill="#1f2937"/>
  <rect x="225" y="365" width="15" height="15" fill="#1f2937"/>
  <rect x="245" y="365" width="15" height="15" fill="#1f2937"/>
  <rect x="265" y="365" width="15" height="15" fill="#1f2937"/>
  <rect x="125" y="385" width="15" height="15" fill="#1f2937"/>
  <rect x="265" y="385" width="15" height="15" fill="#1f2937"/>
  <rect x="125" y="405" width="15" height="15" fill="#1f2937"/>
  <rect x="145" y="405" width="15" height="15" fill="#1f2937"/>
  <rect x="165" y="405" width="15" height="15" fill="#1f2937"/>
  <rect x="185" y="405" width="15" height="15" fill="#1f2937"/>
  <rect x="205" y="405" width="15" height="15" fill="#1f2937"/>
  <rect x="225" y="405" width="15" height="15" fill="#1f2937"/>
  <rect x="245" y="405" width="15" height="15" fill="#1f2937"/>
  <rect x="265" y="405" width="15" height="15" fill="#1f2937"/>
  <rect x="125" y="425" width="15" height="15" fill="#1f2937"/>
  <rect x="265" y="425" width="15" height="15" fill="#1f2937"/>
  <rect x="125" y="445" width="15" height="15" fill="#1f2937"/>
  <rect x="145" y="445" width="15" height="15" fill="#1f2937"/>
  <rect x="165" y="445" width="15" height="15" fill="#1f2937"/>
  <rect x="185" y="445" width="15" height="15" fill="#1f2937"/>
  <rect x="205" y="445" width="15" height="15" fill="#1f2937"/>
  <rect x="225" y="445" width="15" height="15" fill="#1f2937"/>
  <rect x="245" y="445" width="15" height="15" fill="#1f2937"/>
  <rect x="265" y="445" width="15" height="15" fill="#1f2937"/>
  <rect x="125" y="465" width="15" height="15" fill="#1f2937"/>
  <rect x="265" y="465" width="15" height="15" fill="#1f2937"/>
  <rect x="125" y="485" width="15" height="15" fill="#1f2937"/>
  <rect x="145" y="485" width="15" height="15" fill="#1f2937"/>
  <rect x="165" y="485" width="15" height="15" fill="#1f2937"/>
  <rect x="185" y="485" width="15" height="15" fill="#1f2937"/>
  <rect x="205" y="485" width="15" height="15" fill="#1f2937"/>
  <rect x="225" y="485" width="15" height="15" fill="#1f2937"/>
  <rect x="245" y="485" width="15" height="15" fill="#1f2937"/>
  <rect x="265" y="485" width="15" height="15" fill="#1f2937"/>
</svg> 