<?xml version="1.0" encoding="UTF-8"?>
<svg width="400" height="300" viewBox="0 0 400 300" xmlns="http://www.w3.org/2000/svg">
  <!-- Фон -->
  <rect width="400" height="300" fill="#f3f4f6"/>
  
  <!-- Визитка -->
  <rect x="100" y="50" width="200" height="200" rx="10" fill="white"/>
  <rect x="100" y="50" width="200" height="200" rx="10" fill="none" stroke="#1f2937" stroke-width="2"/>
  
  <!-- Логотип -->
  <rect x="120" y="70" width="60" height="60" rx="30" fill="#e5e7eb"/>
  
  <!-- Имя -->
  <rect x="120" y="140" width="160" height="15" rx="7.5" fill="#e5e7eb"/>
  
  <!-- Должность -->
  <rect x="120" y="165" width="140" height="10" rx="5" fill="#e5e7eb"/>
  
  <!-- QR-код -->
  <rect x="120" y="185" width="60" height="60" fill="white"/>
  <rect x="120" y="185" width="60" height="60" fill="none" stroke="#1f2937" stroke-width="1"/>
  <!-- Паттерн QR-кода -->
  <rect x="125" y="190" width="10" height="10" fill="#1f2937"/>
  <rect x="140" y="190" width="10" height="10" fill="#1f2937"/>
  <rect x="155" y="190" width="10" height="10" fill="#1f2937"/>
  <rect x="170" y="190" width="10" height="10" fill="#1f2937"/>
  <rect x="125" y="205" width="10" height="10" fill="#1f2937"/>
  <rect x="170" y="205" width="10" height="10" fill="#1f2937"/>
  <rect x="125" y="220" width="10" height="10" fill="#1f2937"/>
  <rect x="140" y="220" width="10" height="10" fill="#1f2937"/>
  <rect x="155" y="220" width="10" height="10" fill="#1f2937"/>
  <rect x="170" y="220" width="10" height="10" fill="#1f2937"/>
  <rect x="125" y="235" width="10" height="10" fill="#1f2937"/>
  <rect x="170" y="235" width="10" height="10" fill="#1f2937"/>
</svg> 